<svg xmlns="http://www.w3.org/2000/svg" width="960" height="480" viewBox="0 0 960 480" role="img"><title>GPT-2 Training Systems architecture overview</title><desc>Text dataset: FineWeb-Edu / tiktoken → Token shards: uint16 / NumPy files → Batch loading: C++ / pybind11 → Train and evaluate: PyTorch Transformer</desc><rect width="960" height="480" fill="#080d13"/><g font-family="Arial, sans-serif"><text x="50" y="49" fill="#b6a4ef" font-size="13">SYSTEM OVERVIEW</text><text x="50" y="95" fill="#e8eaf0" font-size="36">GPT-2 Training Systems</text><rect x="50" y="150" width="380" height="112" rx="6" fill="#111820" stroke="#33404c"/><text x="72" y="179" fill="#b6a4ef" font-size="13">01</text><text x="72" y="209" fill="#e8eaf0" font-size="24">Text dataset</text><text x="72" y="238" fill="#a7b3c1" font-size="18">FineWeb-Edu / tiktoken</text><rect x="530" y="150" width="380" height="112" rx="6" fill="#111820" stroke="#33404c"/><text x="552" y="179" fill="#b6a4ef" font-size="13">02</text><text x="552" y="209" fill="#e8eaf0" font-size="24">Token shards</text><text x="552" y="238" fill="#a7b3c1" font-size="18">uint16 / NumPy files</text><rect x="50" y="315" width="380" height="112" rx="6" fill="#111820" stroke="#33404c"/><text x="72" y="344" fill="#b6a4ef" font-size="13">03</text><text x="72" y="374" fill="#e8eaf0" font-size="24">Batch loading</text><text x="72" y="403" fill="#a7b3c1" font-size="18">C++ / pybind11</text><rect x="530" y="315" width="380" height="112" rx="6" fill="#111820" stroke="#33404c"/><text x="552" y="344" fill="#b6a4ef" font-size="13">04</text><text x="552" y="374" fill="#e8eaf0" font-size="24">Train and evaluate</text><text x="552" y="403" fill="#a7b3c1" font-size="18">PyTorch Transformer</text><path d="M442 206H514m-9-6 9 6-9 6M720 274V288H240V303m-6-9 6 9 6-9M442 371H514m-9-6 9 6-9 6" fill="none" stroke="#b6a4ef" stroke-width="2"/><text x="50" y="458" fill="#a7b3c1" font-size="12">Architecture illustration · Repository README and gpt2 source layout</text></g></svg>