<svg xmlns="http://www.w3.org/2000/svg" width="960" height="480" viewBox="0 0 960 480" role="img"><title>NowServing architecture overview</title><desc>Customers / owners: React / TypeScript → Queue coordination: Spring Boot / locking → State and events: PostgreSQL / Redis → Live positions: WebSockets / polling</desc><rect width="960" height="480" fill="#080d13"/><g font-family="Arial, sans-serif"><text x="50" y="49" fill="#38bdf8" font-size="13">SYSTEM OVERVIEW</text><text x="50" y="95" fill="#e8eaf0" font-size="36">NowServing</text><rect x="50" y="150" width="380" height="112" rx="6" fill="#111820" stroke="#33404c"/><text x="72" y="179" fill="#38bdf8" font-size="13">01</text><text x="72" y="209" fill="#e8eaf0" font-size="24">Customers / owners</text><text x="72" y="238" fill="#a7b3c1" font-size="18">React / TypeScript</text><rect x="530" y="150" width="380" height="112" rx="6" fill="#111820" stroke="#33404c"/><text x="552" y="179" fill="#38bdf8" font-size="13">02</text><text x="552" y="209" fill="#e8eaf0" font-size="24">Queue coordination</text><text x="552" y="238" fill="#a7b3c1" font-size="18">Spring Boot / locking</text><rect x="50" y="315" width="380" height="112" rx="6" fill="#111820" stroke="#33404c"/><text x="72" y="344" fill="#38bdf8" font-size="13">03</text><text x="72" y="374" fill="#e8eaf0" font-size="24">State and events</text><text x="72" y="403" fill="#a7b3c1" font-size="18">PostgreSQL / Redis</text><rect x="530" y="315" width="380" height="112" rx="6" fill="#111820" stroke="#33404c"/><text x="552" y="344" fill="#38bdf8" font-size="13">04</text><text x="552" y="374" fill="#e8eaf0" font-size="24">Live positions</text><text x="552" y="403" fill="#a7b3c1" font-size="18">WebSockets / polling</text><path d="M442 206H514m-9-6 9 6-9 6M720 274V288H240V303m-6-9 6 9 6-9M442 371H514m-9-6 9 6-9 6" fill="none" stroke="#38bdf8" stroke-width="2"/><text x="50" y="458" fill="#a7b3c1" font-size="12">Architecture illustration · Supplied project demo and architecture</text></g></svg>