<svg xmlns="http://www.w3.org/2000/svg" width="960" height="480" viewBox="0 0 960 480" role="img"><title>Social Determinants of Health NLP architecture overview</title><desc>Notes and tweets: SDOH-NLI inputs → Tokenization: Hugging Face tokenizer → Fine-tuning: BERT classification → Evaluation: Precision / recall / F1</desc><rect width="960" height="480" fill="#080d13"/><g font-family="Arial, sans-serif"><text x="50" y="49" fill="#71d4c0" font-size="13">SYSTEM OVERVIEW</text><text x="50" y="95" fill="#e8eaf0" font-size="30">Social Determinants of Health NLP</text><rect x="50" y="150" width="380" height="112" rx="6" fill="#111820" stroke="#33404c"/><text x="72" y="179" fill="#71d4c0" font-size="13">01</text><text x="72" y="209" fill="#e8eaf0" font-size="24">Notes and tweets</text><text x="72" y="238" fill="#a7b3c1" font-size="18">SDOH-NLI inputs</text><rect x="530" y="150" width="380" height="112" rx="6" fill="#111820" stroke="#33404c"/><text x="552" y="179" fill="#71d4c0" font-size="13">02</text><text x="552" y="209" fill="#e8eaf0" font-size="24">Tokenization</text><text x="552" y="238" fill="#a7b3c1" font-size="18">Hugging Face tokenizer</text><rect x="50" y="315" width="380" height="112" rx="6" fill="#111820" stroke="#33404c"/><text x="72" y="344" fill="#71d4c0" font-size="13">03</text><text x="72" y="374" fill="#e8eaf0" font-size="24">Fine-tuning</text><text x="72" y="403" fill="#a7b3c1" font-size="18">BERT classification</text><rect x="530" y="315" width="380" height="112" rx="6" fill="#111820" stroke="#33404c"/><text x="552" y="344" fill="#71d4c0" font-size="13">04</text><text x="552" y="374" fill="#e8eaf0" font-size="24">Evaluation</text><text x="552" y="403" fill="#a7b3c1" font-size="18">Precision / recall / F1</text><path d="M442 206H514m-9-6 9 6-9 6M720 274V288H240V303m-6-9 6 9 6-9M442 371H514m-9-6 9 6-9 6" fill="none" stroke="#71d4c0" stroke-width="2"/><text x="50" y="458" fill="#a7b3c1" font-size="12">Architecture illustration · Repository methodology README</text></g></svg>